# xmcd
#
# Track frame offsets: 
#        150
#        17704
#        48220
#        76260
#        92465
#        121385
#        157079
#        184761
#        217590
#        235215
#
# Disc length: 3434 seconds
#
# Revision: 0
# Processed by: cddbd v1.5.2PL0 Copyright (c) Steve Scherf et al.
# Submitted via: ExactAudioCopy v1.2
#
DISCID=700d680a
DTITLE=Frank Bang and The Cook County Kings - The Blues Don't Care
DYEAR=2016
DGENRE=Blues
TTITLE0=The Blues Don't Care
TTITLE1=The Dream
TTITLE2=Million Miles Away
TTITLE3=Till the Day I Die
TTITLE4=Come on in This House
TTITLE5=Can't Find My Way Home (Pt. 1 and Pt. 2)
TTITLE6=Possum in My Tree
TTITLE7=Repo Man
TTITLE8=Still Called the Blues
TTITLE9=Can't Go on This Way
EXTD=
EXTT0=
EXTT1=
EXTT2=
EXTT3=
EXTT4=
EXTT5=
EXTT6=
EXTT7=
EXTT8=
EXTT9=
PLAYORDER=
